<svg xmlns="http://www.w3.org/2000/svg" width="82" height="100" viewBox="0 0 82 100" fill="none">
  <path d="M0.761078 27.6596C3.03055 8.65248 18.8462 0 27.7115 0H81.2576C81.2576 19.0071 68.2884 22.104 61.5508 23.0496C58.0129 23.5462 47.721 23.0496 42.7565 23.0496C37.7919 23.0496 31.1783 22.695 27.1536 24.8227C23.129 26.9504 23.6075 31.5603 23.6075 31.5603C23.6075 31.5603 23.9347 38.6525 29.2538 38.6525C11.878 41.1348 4.18899 55.6738 0.761078 63.1206V27.6596Z" fill="url(#paint0_linear_26_65)"/>
  <path d="M1.42485 80.8511C5.84961 65.2482 21.4524 64.1844 31.0269 64.1844H44.8567C67.0376 64.1844 70.08 43.6853 69.3759 37.5887L28.8993 38.6525C20.9896 38.6525 4.88102 45.8744 0.885069 61.7021C0.175847 66.3121 0.579864 75.7862 1.42485 80.8511Z" fill="url(#paint1_linear_26_65)"/>
  <path d="M0.746944 99.8556C11.5912 101.03 32.7259 95.5591 30.5109 64.286C18.6155 63.4752 -4.43414 66.6667 0.746944 99.8556Z" fill="url(#paint2_linear_26_65)"/>
  <defs>
    <linearGradient id="paint0_linear_26_65" x1="40.6288" y1="0" x2="40.6288" y2="100" gradientUnits="userSpaceOnUse">
      <stop stop-color="#0077FF"/>
      <stop offset="1" stop-color="#003470"/>
    </linearGradient>
    <linearGradient id="paint1_linear_26_65" x1="40.6288" y1="0" x2="40.6288" y2="100" gradientUnits="userSpaceOnUse">
      <stop stop-color="#0079FF"/>
      <stop offset="1" stop-color="#0058B8"/>
    </linearGradient>
    <linearGradient id="paint2_linear_26_65" x1="15.4227" y1="64.1752" x2="15.4227" y2="100" gradientUnits="userSpaceOnUse">
      <stop stop-color="#FE6201"/>
      <stop offset="1" stop-color="#FF6200"/>
    </linearGradient>
  </defs>
</svg>
